<?xml version="1.0" standalone="no"?><!DOCTYPE svg PUBLIC "-//W3C//DTD SVG 1.1//EN" "http://www.w3.org/Graphics/SVG/1.1/DTD/svg11.dtd"><svg t="1614852508095" class="icon" viewBox="0 0 1024 1024" version="1.1" xmlns="http://www.w3.org/2000/svg" p-id="4808" xmlns:xlink="http://www.w3.org/1999/xlink" width="200" height="200"><defs><style type="text/css"></style></defs><path d="M521.1 735.6h-15.3L497 468.2h32.9z" fill="#FFC74A" p-id="4809"></path><path d="M513.4 468.2v267.4h7.7l8.8-267.4z" fill="#231815" opacity=".2" p-id="4810"></path><path d="M521.1 735.6h-15.3L497 468.2h32.9z" fill="#FFC74A" p-id="4811"></path><path d="M513.4 468.2v267.4h7.7l8.8-267.4z" fill="#231815" opacity=".2" p-id="4812"></path><path d="M523.1 733.3l-14.8 4-77.7-256.1 31.7-8.5z" fill="#FFC74A" p-id="4813"></path><path d="M446.5 477l69.2 258.3 7.4-2-60.8-260.6z" fill="#231815" opacity=".2" p-id="4814"></path><path d="M524.4 730.6l-13.3 7.7-141.3-227.2 28.5-16.5z" fill="#FFC74A" p-id="4815"></path><path d="M384 502.8l133.7 231.6 6.7-3.8-126.1-236z" fill="#231815" opacity=".2" p-id="4816"></path><path d="M525 727.6l-10.9 10.9-195.3-182.9 23.3-23.3z" fill="#FFC74A" p-id="4817"></path><path d="M330.5 544l189 189.1 5.5-5.5-182.9-195.3z" fill="#231815" opacity=".2" p-id="4818"></path><path d="M524.8 724.6l-7.7 13.3-236-126.1 16.4-28.5z" fill="#FFC74A" p-id="4819"></path><path d="M289.3 597.6l231.6 133.7 3.9-6.7-227.3-141.3z" fill="#231815" opacity=".2" p-id="4820"></path><path d="M503.8 733.3l14.8 4 77.7-256.1-31.8-8.5z" fill="#FFC74A" p-id="4821"></path><path d="M580.4 477l-69.2 258.3-7.4-2 60.7-260.6z" fill="#231815" opacity=".2" p-id="4822"></path><path d="M502.5 730.6l13.2 7.7L657 511.1l-28.4-16.5z" fill="#FFC74A" p-id="4823"></path><path d="M642.8 502.8L509.1 734.4l-6.6-3.8 126.1-236z" fill="#231815" opacity=".2" p-id="4824"></path><path d="M501.9 727.6l10.8 10.9L708 555.6l-23.2-23.3z" fill="#FFC74A" p-id="4825"></path><path d="M696.4 544L507.3 733.1l-5.4-5.5 182.9-195.3z" fill="#231815" opacity=".2" p-id="4826"></path><path d="M502.1 724.6l7.7 13.3 235.9-126.1-16.4-28.5z" fill="#FFC74A" p-id="4827"></path><path d="M737.5 597.6L505.9 731.3l-3.8-6.7 227.2-141.3z" fill="#231815" opacity=".2" p-id="4828"></path><path d="M598.4 704.3H431c-9.1 0-16.5 8.1-15 17.1 8.1 47.1 49.2 83 98.7 83s90.5-35.9 98.7-83c1.5-9-5.8-17.1-15-17.1z" fill="#FF0303" p-id="4829"></path><path d="M600.8 704.8c0 0.2 0.1 0.5 0 0.7-8.1 47.1-49.2 83-98.7 83-28.3 0-53.6-12-71.8-30.9 17.7 28 48.8 46.7 84.4 46.7 49.5 0 90.5-35.9 98.7-83 1.4-8-4.7-15.2-12.6-16.5z" fill="#231815" opacity=".3" p-id="4830"></path><path d="M651.3 655.2c-0.1 5.4-0.5 10.7-1.1 16h240.5l32.9-3.5 36.8-45-309.1 32.5z" fill="#CE0000" p-id="4831"></path><path d="M651.4 653.7c0 0.5-0.1 1-0.1 1.5l309.1-32.5-45.4-36.3-269.9 26.2c4.1 13 6.3 26.8 6.3 41.1z" fill="#FF0303" p-id="4832"></path><path d="M648.5 625.6c1.9 9.1 2.9 18.5 2.9 28.1 0 4.8-0.2 9.5-0.7 14.2l263.5-85.6 26.6-51.7-292.3 95z" fill="#CE0000" p-id="4833"></path><path d="M648.5 625.6l292.3-95-51.9-26.2-254.5 82.7c6.5 12 11.3 24.9 14.1 38.5z" fill="#FF0303" p-id="4834"></path><path d="M639.1 596.8c5.7 12.7 9.6 26.3 11.3 40.7l236.9-136.8 15.3-56.1-263.5 152.2z" fill="#CE0000" p-id="4835"></path><path d="M639.1 596.8l263.4-152.1-56.2-14.8-229.4 132.5c9 10.2 16.5 21.8 22.2 34.4z" fill="#FF0303" p-id="4836"></path><path d="M623.2 570.2c8.4 11.2 15.2 23.6 20 37l200.7-180.7 3.3-58-224 201.7z" fill="#CE0000" p-id="4837"></path><path d="M623.2 570.2l224-201.7-58-2.8L594 541.5c11.1 8.1 20.9 17.7 29.2 28.7z" fill="#FF0303" p-id="4838"></path><path d="M629.3 578.8L786.1 363l-8.8-57.4-175.7 241.7c10.7 9 20 19.6 27.7 31.5z" fill="#CE0000" p-id="4839"></path><path d="M601.6 547.3l175.6-241.7-57.3 9.3-153.3 211c12.8 5.3 24.5 12.6 35 21.4z" fill="#FF0303" p-id="4840"></path><path d="M608.9 554l107.4-241.2-20.6-54.3-120.8 271.3c12.5 6.4 24 14.5 34 24.2z" fill="#CE0000" p-id="4841"></path><path d="M574.9 529.8l120.8-271.4-54.2 21.1L535.8 517c13.8 2.4 27 6.7 39.1 12.8z" fill="#FF0303" p-id="4842"></path><path d="M583.2 534.4l54.4-256.1-31.4-48.9-61.5 289.4c13.7 3.3 26.6 8.6 38.5 15.6z" fill="#CE0000" p-id="4843"></path><path d="M512.6 514.9c11.1 0 21.8 1.4 32.1 3.9l61.5-289.4-48.6 31.9-54 254.1c3-0.2 5.9-0.5 9-0.5z" fill="#FF0303" p-id="4844"></path><path d="M553.5 260.8l-40.9-41.3v295.4c14.2 0 28 2.2 40.9 6.1V260.8z" fill="#CE0000" p-id="4845"></path><path d="M512.6 514.9V219.6l-40.9 41.3v260.3c12.9-4.1 26.6-6.3 40.9-6.3z" fill="#FF0303" p-id="4846"></path><path d="M512.6 514.9c3 0 6 0.3 9 0.5l-54-254.1-48.6-31.9 61.5 289.4c10.3-2.4 21-3.9 32.1-3.9z" fill="#CE0000" p-id="4847"></path><path d="M480.5 518.8L419 229.4l-31.4 48.9L442 534.4c11.8-7 24.7-12.3 38.5-15.6z" fill="#FF0303" p-id="4848"></path><path d="M489.3 517L383.6 279.5l-54.2-21.1 120.8 271.4c12.2-6.1 25.3-10.4 39.1-12.8z" fill="#CE0000" p-id="4849"></path><path d="M450.3 529.8L329.4 258.5l-20.6 54.3L416.2 554c10-9.7 21.5-17.8 34.1-24.2z" fill="#FF0303" p-id="4850"></path><path d="M458.5 525.9l-153.3-211-57.3-9.3 175.6 241.7c10.5-8.8 22.3-16.1 35-21.4z" fill="#CE0000" p-id="4851"></path><path d="M423.6 547.3L247.9 305.5l-8.8 57.4 156.8 215.8c7.6-11.8 16.9-22.4 27.7-31.4z" fill="#FF0303" p-id="4852"></path><path d="M431.2 541.5L236 365.7l-58 2.8 224 201.7c8.2-11 18.1-20.6 29.2-28.7z" fill="#CE0000" p-id="4853"></path><path d="M401.9 570.2L178 368.5l3.3 58L382 607.2c4.7-13.4 11.5-25.9 19.9-37z" fill="#FF0303" p-id="4854"></path><path d="M408.3 562.4L178.8 429.9l-56.2 14.8L386 596.8c5.8-12.6 13.3-24.2 22.3-34.4z" fill="#CE0000" p-id="4855"></path><path d="M386.1 596.8L122.6 444.7l15.3 56.1 236.9 136.8c1.7-14.5 5.6-28.1 11.3-40.8z" fill="#FF0303" p-id="4856"></path><path d="M390.8 587.2l-254.5-82.7-51.9 26.2 292.3 95c2.7-13.7 7.6-26.6 14.1-38.5z" fill="#CE0000" p-id="4857"></path><path d="M373.8 653.7c0-9.6 1-19 2.9-28.1l-292.3-95 26.6 51.7L374.5 668c-0.5-4.7-0.7-9.5-0.7-14.3z" fill="#FF0303" p-id="4858"></path><path d="M373.8 653.7c0-4.5 0.3-9 0.7-13.4l-264.3-53.9-45.3 36.4L374 655.3c-0.2-0.6-0.2-1.1-0.2-1.6z" fill="#CE0000" p-id="4859"></path><path d="M373.8 655.2l-309-32.5 36.8 45 32.9 3.5H375c-0.7-5.2-1.1-10.6-1.2-16z" fill="#FF0303" p-id="4860"></path><path d="M446 328.6h18.7c4.4 0 8-3.6 8-8s-3.6-8-8-8H446c-4.4 0-8 3.6-8 8s3.6 8 8 8zM479.1 343.3c-2.3-4.3-6.7-7-11.5-7H427c-4.4 0-8 3.6-8 8s3.6 8 8 8h34.7l-44.2 64.1c-2.5 3.7-1.6 8.7 2.1 11.2 1.4 1 3 1.4 4.6 1.4 2.6 0 5.1-1.2 6.6-3.5l47.5-68.9c2.8-3.9 3.1-9 0.8-13.3z" fill="#FFC74A" p-id="4861"></path><path d="M481.4 398.9c-3.2-2.8-14.3-11.7-24.4-7.2-6.4 2.9-9.6 9.7-9.6 20.3v53c0 4.4 3.6 8 8 8s8-3.6 8-8v-53c0-2.7 0.3-4.3 0.5-5.2 1.8 0.6 4.7 2.4 6.7 4.2 3.3 2.9 8.4 2.6 11.3-0.7 3.1-3.4 2.8-8.5-0.5-11.4zM489 328.6h91c4.4 0 8-3.6 8-8s-3.6-8-8-8h-91c-4.4 0-8 3.6-8 8s3.6 8 8 8zM522.8 332.5c-13.1 0-23.8 10.7-23.8 23.8s10.7 23.8 23.8 23.8h27.6c13.1 0 23.8-10.7 23.8-23.8s-10.7-23.8-23.8-23.8h-27.6z m35.4 23.8c0 4.2-3.4 7.7-7.7 7.7h-27.6c-4.2 0-7.7-3.4-7.7-7.7 0-4.2 3.4-7.7 7.7-7.7h27.6c4.2 0 7.7 3.5 7.7 7.7zM542.8 387.3h-16.5c-24.4 0-44.3 19.9-44.3 44.3s19.9 44.3 44.3 44.3h16.5c24.4 0 44.3-19.9 44.3-44.3-0.1-24.4-19.9-44.3-44.3-44.3z m26.8 36.2h-27.1v-19.6c0-0.2-0.1-0.3-0.1-0.5h0.3c12.8 0 23.4 8.5 26.9 20.1z m-43.3-20.1h0.3c0 0.2-0.1 0.3-0.1 0.5v19.6h-27.1c3.5-11.6 14.1-20.1 26.9-20.1z m-26.9 36.2h27.1v20.1h-0.2c-12.8 0-23.4-8.5-26.9-20.1z m43.4 20.1h-0.2v-20.1h27.1c-3.6 11.6-14.2 20.1-26.9 20.1z" fill="#FFC74A" p-id="4862"></path></svg>