<?xml version="1.0" standalone="no"?><!DOCTYPE svg PUBLIC "-//W3C//DTD SVG 1.1//EN" "http://www.w3.org/Graphics/SVG/1.1/DTD/svg11.dtd"><svg t="1614852499943" class="icon" viewBox="0 0 1024 1024" version="1.1" xmlns="http://www.w3.org/2000/svg" p-id="4442" xmlns:xlink="http://www.w3.org/1999/xlink" width="200" height="200"><defs><style type="text/css"></style></defs><path d="M684.3 96.4H339.7L96.1 340.1v344.5l243.6 243.7h344.6l243.6-243.7V340.1z" fill="#CE0000" p-id="4443"></path><path d="M669.7 131.6H354.3l-223.1 223v315.5l223.1 223h315.4l223.1-223V354.6z" fill="#FFC74A" p-id="4444"></path><path d="M407.4 162.9h209.3v15H407.4zM407.4 189.1h209.3v15H407.4zM407.4 215.3h209.3v15H407.4zM407.4 794.4h209.3v15H407.4zM407.4 820.6h209.3v15H407.4zM407.4 846.8h209.3v15H407.4z" fill="#FF0303" p-id="4445"></path><path d="M861.41 407.693v209.3h-15v-209.3zM835.188 407.715v209.3h-15v-209.3zM808.966 407.738v209.3h-15v-209.3zM229.938 407.766v209.3h-15v-209.3zM203.716 407.688v209.3h-15v-209.3zM177.493 407.71v209.3h-15v-209.3z" fill="#FF0303" p-id="4446"></path><path d="M685.103 191.312l147.996 147.996-10.607 10.606-147.996-147.996zM666.55 209.783l147.996 147.996-10.607 10.607L655.943 220.39zM648.067 228.325L796.063 376.32l-10.606 10.606L637.46 238.931zM238.617 637.83l147.996 147.997-10.607 10.606L228.01 648.437zM220.063 656.302L368.06 804.298l-10.607 10.606-147.996-147.996zM201.51 674.914L349.506 822.91 338.9 833.517 190.904 685.52z" fill="#FF0303" p-id="4447"></path><path d="M833.045 685.46L685.049 833.456l-10.607-10.607L822.44 674.853zM814.585 666.918L666.59 814.914l-10.606-10.607 147.996-147.996zM795.984 648.376L647.988 796.372l-10.607-10.607L785.377 637.77zM386.565 239.012L238.569 387.008 227.962 376.4l147.996-147.996zM368.034 220.4L220.038 368.394l-10.606-10.606 147.996-147.996zM349.433 201.857L201.437 349.853l-10.607-10.606L338.826 191.25z" fill="#FF0303" p-id="4448"></path><path d="M354.4431 696.786152a241.8 241.8 0 1 0 341.950871-341.962807 241.8 241.8 0 1 0-341.950871 341.962807Z" fill="#231815" opacity=".3" p-id="4449"></path><path d="M512 512.4m-241.8 0a241.8 241.8 0 1 0 483.6 0 241.8 241.8 0 1 0-483.6 0Z" fill="#FF0303" p-id="4450"></path><path d="M512 512.4m-221.3 0a221.3 221.3 0 1 0 442.6 0 221.3 221.3 0 1 0-442.6 0Z" fill="#FFC74A" p-id="4451"></path><path d="M733.4 512.4c0 120.4-96.1 218.2-215.8 221.1-1.9 0.1-3.8 0.1-5.6 0.1-1.9 0-3.8 0-5.6-0.1-58.5-3-104.9-51.3-104.9-110.6 0-61.1 49.5-110.6 110.6-110.6 61.2 0 110.7-49.7 110.7-110.7 0-59.3-46.4-107.6-105.1-110.6 119.7 3.1 215.7 101 215.7 221.4z" fill="#FF0303" p-id="4452"></path><path d="M517.7 291.1c-1.9-0.1-3.8-0.1-5.6-0.1-1.9 0-3.8 0-5.6 0.1-119.7 3-215.6 100.9-215.6 221.3s95.9 218.2 215.6 221.1c-58.5-3-104.9-51.3-104.9-110.6 0-61.1 49.5-110.6 110.6-110.6 61.2 0 110.7-49.7 110.7-110.7-0.2-59.2-46.6-107.5-105.2-110.5z" fill="#FFC74A" p-id="4453"></path><path d="M512.1 626.6m-26.7 0a26.7 26.7 0 1 0 53.4 0 26.7 26.7 0 1 0-53.4 0Z" fill="#FFC74A" p-id="4454"></path><path d="M512.1 381.1m-26.7 0a26.7 26.7 0 1 0 53.4 0 26.7 26.7 0 1 0-53.4 0Z" fill="#FF0303" p-id="4455"></path></svg>