<?xml version="1.0" standalone="no"?><!DOCTYPE svg PUBLIC "-//W3C//DTD SVG 1.1//EN" "http://www.w3.org/Graphics/SVG/1.1/DTD/svg11.dtd"><svg t="1614852481929" class="icon" viewBox="0 0 1024 1024" version="1.1" xmlns="http://www.w3.org/2000/svg" p-id="4109" xmlns:xlink="http://www.w3.org/1999/xlink" width="200" height="200"><defs><style type="text/css"></style></defs><path d="M922.7 664.6c0 167.2-184.4 263.7-412 263.7s-412-96.5-412-263.7 184.4-350.3 412-350.3 412 183 412 350.3z" fill="#FF0303" p-id="4110"></path><path d="M531.8 315.3c187.6 37.4 328.6 195.8 328.6 342 0 167.2-184.4 263.7-412 263.7-19.5 0-38.4-1-57.2-2.4 37.8 6.3 77.9 9.6 119.5 9.6 227.5 0 412-96.5 412-263.7 0-161.9-173.3-338.3-390.9-349.2z" fill="#CE0000" p-id="4111"></path><path d="M607.4 198.6c0 58.9-42.9 197.7-95.8 197.7s-95.8-138.8-95.8-197.7 42.9-100.4 95.8-100.4 95.8 41.6 95.8 100.4z" fill="#FF0303" p-id="4112"></path><path d="M437.4 185.6c41.6 41.6 109.5 170.1 72.1 207.5S343.6 362.6 302 321s-40.7-101.3-3.3-138.7 97.1-38.3 138.7 3.3z" fill="#FF0303" p-id="4113"></path><path d="M586 185.6c-41.6 41.6-109.5 170.1-72.1 207.5s165.9-30.5 207.5-72.1 40.7-101.3 3.3-138.7c-37.5-37.4-97.1-38.3-138.7 3.3z" fill="#FF0303" p-id="4114"></path><path d="M419.6 171.2c-39.6-26.2-88.6-21.3-121 11.1v1.4c28.1-28.6 84.9-19.2 124.9 24.6 15.6 17.1 36.1 70.8 47.5 103.8-9.8-25.1-28.4-102.6-28.4-111.8 0-59.8 30.9-102.1 69-102.1-44.1 0-80.9 29.2-92 73zM724.6 182.3c-32.4-32.4-81.4-37.3-121-11.1-11.1-43.8-47.9-73-92-73 38.1 0 69 42.2 69 102.1 0 10-1.4 54-21.1 109 19.7-55 31.2-83.5 46-101.7 36.4-44.8 91.7-51.8 119.1-23.9v-1.4z" fill="#CE0000" p-id="4115"></path><path d="M684 329.9h27.6c3.6-3.1 7-6 9.8-8.9 41.6-41.6 40.7-101.3 3.3-138.7-3.5-3.5-7.3-6.5-11.1-9.4 35.5 37.5 35.9 95.7-5 136.6-6.4 6.4-14.9 13.3-24.6 20.4z" fill="#CE0000" p-id="4116"></path><path d="M743.2 384.7H278.3c-0.8 0-1.5-0.7-1.5-1.5v-61.5c0-0.8 0.7-1.5 1.5-1.5h464.9c0.8 0 1.5 0.7 1.5 1.5v61.5c0 0.8-0.7 1.5-1.5 1.5z" fill="#FFC74A" p-id="4117"></path><path d="M309.1 384.7h403.4c17.7 0 32.2-14.5 32.2-32.2H276.8c0 17.7 14.5 32.2 32.3 32.2z" fill="#231815" opacity=".2" p-id="4118"></path><path d="M623.6 622.9c-15.3-0.2-30.6-0.3-45.8-0.4-67.5-0.3-123.7 55.2-121.4 122.1 3.4 66.8 55.6 126.2 112.7 121.4 13.3-1.1 26.6-2.5 39.9-4.3 57-9.2 121.6-72.3 131.3-129.6 8.8-57.5-49.3-107.2-116.7-109.2z m-50.9 198.8h-0.5c-32.1 2.1-59-21.8-68.7-54.1 24.1 0.1 48.1-0.3 72.2-1.3-0.8 18.5-1.8 37-3 55.4z m5.6-153.6c-0.2 18-0.5 36-1 54-24.6 0.6-49.3 0.9-73.9 0.8 9.4-32.2 39.1-55.9 74.4-56.2h0.8c0 0.5-0.3 0.9-0.3 1.4z m36 150.2c-0.2 0-0.4 0-0.5 0.1 1.9-18.1 3.6-36.2 4.9-54.3 24.1-1.6 48.1-3.8 72.2-6.5-13.5 30.4-44.6 57.2-76.6 60.7z m7-97.7c0.8-17.7 1.4-35.3 1.7-53 0-0.4-0.2-0.8-0.2-1.3h0.9c35.2-0.3 64.7 21.4 71.7 50.1-24.8 1.8-49.5 3.2-74.1 4.2z m13.9-243.5c-23.7-2.7-47.4-4.6-71.1-5.8-33.3-1.7-61.1 28.4-61.5 64.8-0.3 36.4 29.2 66 65.6 66.4 25.5 0.3 51 0.7 76.5 1.3 36.3 0.5 65-25.4 61-58-4.3-32.7-37.2-64.5-70.5-68.7z m7.6 83.8c-25.1-1.3-50.3-2.3-75.4-2.8-11.6-0.3-21.1-9.9-21.3-21.7-0.2-11.7 8.8-21.1 20-20.7 24.6 0.9 49.1 2.3 73.7 4.3 11.3 0.9 21.4 10.9 22.4 21.9 1 11.1-7.8 19.6-19.4 19zM477.4 459.7c77.2-2.6 154.4 3.8 231.7 19 11.4 2.2 18.4-4.5 15.3-15.2-3.1-10.7-14.6-21.9-25.3-24.7-73.3-18.9-146.6-26.8-219.9-23.6-10.7 0.5-20.1 11.1-20.9 23.3-0.9 12.1 7.7 21.5 19.1 21.2z m-27.2 41.6c-5.4-11.6-16.4-18.3-29-17.3-35.1 2.6-70.2 6.9-105.3 12.6-11.5 2-22.8 12.4-24.8 23.2-2 10.8 6.3 18.4 18.3 17 31.1-3.6 62.1-6.3 93.2-8.2-43.5 60.1-88.2 117.8-124.3 167-6.2 8.4-2.3 20.6 8.5 27.8 4.1 2.7 8.5 4.3 12.8 4.7 6.9 0.7 13.4-1.7 17.1-7.1 37.6-54.6 85-118.1 130-182.7 7.6-11.1 8.9-25.4 3.5-37z m3 153.1c-8.9-8-39.8-32.1-67.8-19.8-17.7 7.8-26.9 25.7-25.8 53.6 1.9 46.5 6.5 92.9 14 139.4 1.9 11.7 12.4 22.7 23.2 24.3 10.8 1.6 18.4-7.1 17.1-19.1-5.2-47.8-8.5-95.6-9.9-143.3-0.2-7.3 0.5-11.6 1.1-14.1 4.9 1.7 13 6.7 18.8 11.7 9.3 8.2 23.3 7.7 31.3-1.4 8.1-9.1 7.2-23.1-2-31.3zM368 469.2c15.9-2.3 31.8-4.1 47.7-5.6 11.4-1.1 21.3-11.5 22.3-23.8 1-12.2-6.8-21.2-17.5-19.9-15.1 1.9-30.2 4.2-45.3 7-10.7 2-21.5 13.2-23.8 24.6-2.3 11.5 5.3 19.3 16.6 17.7z" fill="#FFC74A" p-id="4119"></path></svg>