<?xml version="1.0" standalone="no"?><!DOCTYPE svg PUBLIC "-//W3C//DTD SVG 1.1//EN" "http://www.w3.org/Graphics/SVG/1.1/DTD/svg11.dtd"><svg t="1614852488932" class="icon" viewBox="0 0 1024 1024" version="1.1" xmlns="http://www.w3.org/2000/svg" p-id="4273" xmlns:xlink="http://www.w3.org/1999/xlink" width="200" height="200"><defs><style type="text/css"></style></defs><path d="M959.3 552h-896l41.1-46.4h813.9z" fill="#FF0303" p-id="4274"></path><path d="M959.3 552h-896l41.1 46.4h813.9z" fill="#CE0000" p-id="4275"></path><path d="M918.3 459.2H104.4l41-46.4h731.8z" fill="#FF0303" p-id="4276"></path><path d="M918.3 459.2H104.4l41 46.4h731.8z" fill="#CE0000" p-id="4277"></path><path d="M856.7 366.4H166l41-46.4h608.6z" fill="#FF0303" p-id="4278"></path><path d="M856.7 366.4H166l41 46.4h608.6zM104.4 644.8h813.9l-41.1 46.4H145.4z" fill="#CE0000" p-id="4279"></path><path d="M104.4 644.8h813.9l-41.1-46.4H145.4z" fill="#FF0303" p-id="4280"></path><path d="M166 737.6h690.7L815.6 784H207z" fill="#CE0000" p-id="4281"></path><path d="M166 737.6h690.7l-41.1-46.4H207z" fill="#FF0303" p-id="4282"></path><path d="M268.6 830.4H754l-41 46.4H309.7z" fill="#CE0000" p-id="4283"></path><path d="M268.6 830.4H754L713 784H309.7z" fill="#FF0303" p-id="4284"></path><path d="M309.7 876.8h402.1v51.8H309.7zM492.4 98.2H528v96.3h-35.6z" fill="#FFC74A" p-id="4285"></path><path d="M669.1 287.5H627c0-39-53.3-71.9-116.3-71.9s-116.3 32.9-116.3 71.9h-42.1c0-63.9 69.6-114 158.4-114s158.4 50.1 158.4 114z" fill="#FFC74A" p-id="4286"></path><path d="M394.4 287.5c0-39 53.3-71.9 116.3-71.9S627 248.5 627 287.5h15.8c-14.3-50.2-67.1-86.6-132.1-86.6s-117.7 36.4-132 86.6h15.7z" fill="#231815" opacity=".2" p-id="4287"></path><path d="M207 268.2h607.4V320H207z" fill="#FFC74A" p-id="4288"></path></svg>