<?xml version="1.0" standalone="no"?><!DOCTYPE svg PUBLIC "-//W3C//DTD SVG 1.1//EN" "http://www.w3.org/Graphics/SVG/1.1/DTD/svg11.dtd"><svg t="1614852503783" class="icon" viewBox="0 0 1024 1024" version="1.1" xmlns="http://www.w3.org/2000/svg" p-id="4609" xmlns:xlink="http://www.w3.org/1999/xlink" width="200" height="200"><defs><style type="text/css"></style></defs><path d="M187.7 614s-59.3-42.6-72.5 13 57.6 57 57.6 57-30.3 22.4-5 42.9 53.1 10.9 63.2 15.6c10.2 4.7-4.2 25 28 40.4 34.8 16.7 80.4 33.4 134-5.2S187.7 614 187.7 614zM678.4 711.4s-38.5 31-4.6 49.6c33.8 18.6 47.5-27.3 47.5-27.3s9.1 23.8 27.1 11 16.7-32.6 21.6-38.4 15.5 7.2 31.4-10.9c17.2-19.7 36.2-46.3 20.8-88.2-15.5-41.9-143.8 104.2-143.8 104.2zM507.6 466.9s39.2 63.3 70.9 27.9-32.6-73.3-32.6-73.3 35.6-1.2 19.7-30.1-44.6-36-52.3-44.8c-7.6-8.9 12.6-16.8-11.3-45.3-25.9-30.8-61.7-67.2-124.3-65.8-62.5 1.3 129.9 231.4 129.9 231.4z" fill="#FF0303" p-id="4610"></path><path d="M626.9 524.4s19.3-30.5-43.9-110.2c-46.6-58.8-49.3-170.4 11.2-171.2 27.8 0 40 47.2 68.2 81.5 28.2 34.4 73 51.1 97.6 45.7 24.6-5.4 33.9-2.4 87.6-70.4 53.7-68 103.1-59.6 109.4 7.8 6.3 67.5-44.3 123-71.2 131.9-26.9 8.9-58.9 44.6-48.6 77.2-69.4 7.5-107.3 39.2-153.1 26.8-45.7-12.3-57.2-19.1-57.2-19.1z" fill="#CE0000" p-id="4611"></path><path d="M590.1 539s40.6 8.6 63.8-36.6c11.1-21.5 43.9-42.4 99-37.6 57.8 5.1 98.3 44.5 94.9 54.6-39.4 65.8-97.5 120.9-199.2 98.6s-77.1-75.5-77.1-75.5l18.6-3.5z" fill="#CE0000" p-id="4612"></path><path d="M656.3 573.4c-65.7-12.6-117.9-81.6-149.5-166.6-22.1-59.5-93.4-222.6-266.1-175.9-137 55.7-155.1 211.2-114.8 307.4C198.7 712 299.3 791.5 487.7 791.5c146.8 0 330.1-113.6 360.1-272.1-40.5 49.6-137.7 64.3-191.5 54z" fill="#FF0303" p-id="4613"></path><path d="M837.4 508.5c-0.8 0.9-13-7.4-34.4-17.9-10.6-5.2-23.9-9.8-39.3-11.4-15.4-1.7-32.6-0.5-50.3 3.1-8.8 1.8-17.4 4-25.6 6.5-8.5 2.6-15.7 4.5-19.7 10.4-4.2 5.7-7.7 13.2-12.5 18.8-4.6 5.7-9.6 10.4-14.6 14.2-10 7.5-20 10.6-26.8 11.4-6.9 0.8-10.7-0.1-10.7-0.5-0.4-1.4 16 0.1 34.3-15.1 4.5-3.7 8.9-8.3 12.9-13.8 4.3-5.4 6.9-11.9 11.9-19.1 2.5-3.5 6.4-6.9 10.6-8.8 4.2-2 8.3-3.1 12.4-4.5 8.3-2.6 17.1-5 26.3-6.9 18.3-3.7 36.3-4.8 52.5-2.6 16.2 2 30.3 7.6 40.9 13.5 21.3 12 32.6 22.1 32.1 22.7zM714.4 370.1c-0.2 0.4-4.9-1.7-12.9-6.4-7.9-4.8-19.7-12-31.4-24.5-11.9-12.4-21.9-30.2-35-47.9-6.7-8.4-14.1-18.7-24.4-20.9-2.6-0.6-5.5-0.7-8.5-0.6-1.3 0.1-3.5 0-4.2 0.2-1 0.2-0.8-0.4-2.2 1.1-4.2 3.9-9.9 9.5-12.8 12.8-3.3 7.3-5.6 15.8-5.7 24.3-0.4 14 3.4 27.9 6.1 41.5 1.2 13.2 10.9 23.2 15.7 35.6 4.6 10.4 16.1 17.5 21.5 28.6 5.6 10.1 9.8 20 13.3 29 6.7 18.1 12 33.1 13 44.2 1 11.1-1.4 17-1.7 16.9-0.7-0.1 0.7-6-1.1-16.5-1.7-10.4-7.6-24.9-15-42.6-3.7-8.8-8.1-18.3-13.7-27.9-4.7-9.7-15.8-15.8-22.3-28.7-2.4-5.9-5.8-11-9.2-17-1.7-3-3.4-6-4.7-9.5-1.5-3.6-2-7.4-2.7-10.6-2.7-13.4-6.8-27.6-6.4-43.2 0.2-9.6 2.6-18.8 6.6-27.5 3.1-4.2 4.9-5.4 7.4-8l7.1-6.7c0.8-0.6 0.9-1 2.4-2 1.2-0.5 2.4-0.7 3.6-0.9 2.3-0.3 3.4-0.2 5.2-0.2 3.2 0 6.6 0.1 10 0.9 7 1.5 12.6 5.9 16.9 10.2 4.3 4.5 7.9 9.1 11.3 13.7 13.2 18.6 22.5 36.2 33.4 48.5 10.8 12.4 21.8 20.1 29.2 25.6 7.3 5.2 11.5 8.1 11.2 8.5zM844.9 473.3c-0.2 0-0.3-1.7 0.3-4.8 0.5-3.1 1.7-7.7 4.3-13.2 2.5-5.5 6.6-11.9 12.7-18.1 6-6.3 15-11.4 24.5-15.9 19.1-8.4 37.7-26 50.5-50.4 6.4-12.1 12.2-25.7 15.3-40 3.1-14.2 2.2-30.2-6.1-42.8-4.1-6.2-9.9-11.1-16.5-13.3-6.6-2.4-13.4-1.3-19.9 1.8-12.9 6.7-25.6 14.9-36.3 23.2-22.6 16-31.7 41.5-49.8 54.8-16.9 13.9-34.2 19.5-45.9 21.7-5.9 1.1-10.6 1.4-13.8 1.5-3.2 0-4.8-0.2-4.8-0.4 0-0.7 6.6-0.8 17.9-3.8 11.2-2.9 27.5-9.2 43.2-22.9 16.4-12.6 25.3-38.7 48.9-56.2 11.3-9 23.4-17.1 37.6-24.5 7.1-3.6 16.9-5.3 25.3-2.2 8.4 2.9 15.5 8.9 20.3 16.2 9.8 14.8 10.5 33.1 7 48.4-3.5 15.5-9.6 29.2-16.5 41.8-13.6 25.2-34.1 43.8-54.3 51.9-20 7.4-31.4 20.2-36.9 30.6-5.5 10-6.3 16.7-7 16.6z" fill="#FFC74A" p-id="4614"></path><path d="M671.6 461.7c-0.2 0.4-4-2.5-6.2-9.9-1.7-7.4-5.6-17-10.3-29.2-5.3-12.2-10.3-27.3-16.1-43.6-2.9-8.2-6.3-16.7-9.9-25.4-3.6-8.5-8.7-16.7-14.2-25.2l6.6-3.2 1.5 4.8c6 20.4 8.4 40.3 12.6 57.6 4.1 17.3 10.1 32.3 14.9 45.1 10 25.5 13.2 42.5 12.2 42.7-1 0.2-5.8-15.8-17-40.7-5.4-12.5-12.1-27.6-16.7-45.5-4.7-17.7-7.4-37.5-13.1-57.1l-1.4-4.6-8.2-26.2 14.8 23.1c5.5 8.6 10.9 17.2 14.6 26.4 3.6 8.9 6.9 17.6 9.7 26 5.6 16.7 10 31.7 14.5 44 4.2 12.6 7.5 23.2 8.2 30.4 1.3 7 3.9 10.1 3.5 10.5zM697.8 460.8c-0.9-0.2-0.9-10.5-4.7-27.1-1.7-8.2-4.2-18.3-6.1-29.4-1.1-5.4-2.5-10.9-4.8-16.3l-0.9-2c-0.2-0.5-0.1-0.2-0.1-0.3v5.4c-0.1 6.2-0.2 12.1-0.2 17.7-0.3 11.3-0.6 21.5-0.8 30-0.3 8.5-0.7 15.5-1.8 20.4-1.1 4.8-2.5 7.2-3 7.1-0.6-0.4 0.8-10.3-0.5-27.5-0.2-8.6-0.5-18.7-0.8-30-0.1-5.6-0.1-11.6-0.2-17.7v-13.4c-0.1-6.7 0.2-12 0.4-17.6l0.1-2.1 1.1 1.9 2.2 3.9 4.3 7.5c1.4 2.5 2.8 5.1 4.2 7.9l1.8 3.9 0.9 2.2c2.4 6 3.9 12.1 4.8 17.8 1.7 11.2 3.2 21.3 4.5 29.7 2.6 17.1 0.7 28.2-0.4 28zM722.6 457.3c-1-0.7 4.1-7.6 9.8-19.2 2.7-5.8 5.1-13.1 4.2-21.1-0.4-4-1.6-8.2-3.4-12.4l-1.4-3.2c-0.3-0.7-0.2-0.4-0.2-0.5l-0.7 3.4c-1.1 4.7-2.4 9-3.9 13-2.9 8-6.2 14.9-8.5 20.7-4.7 11.6-8.1 18.7-9.1 18.4-0.9-0.3 0.7-7.9 4.3-20.1 1.8-6.1 4.5-13.2 6.9-21 1.2-3.9 2.4-8.1 3.2-12.4l0.6-3.4 0.7-7.3c0-6.2-0.1-12.4-0.1-18.8l3.6 6.4c2.3 4.3 4.6 8.5 6.9 12.6l3 6.1 1.5 3.5c1.8 4.7 3.1 9.6 3.4 14.5 0.7 9.9-2.9 18.2-6.3 24.1-7.4 11.8-13.9 17.1-14.5 16.7zM768.3 462.9c-1-0.6 3.1-8.6 7.5-22.2 2.2-6.8 4.4-15 5.9-24.3 0.8-4.6 1.3-9.5 1.7-14.6 0.3-3.7 0.1-2.4 0.1-2.6 1.4-4.6-3.5 11.2-6.3 19.7-3.4 9.3-8.1 17.3-12.9 23.2-10 12.1-20.4 14-20.4 13.1-0.5-1.1 8.3-4.5 16.2-16.3 4-5.8 7.8-13.4 10.7-22.4 1.3-4.6 2.7-9.4 4.1-14.3l1.1-3.7c0.2-0.5 1.3-4.7 1.9-6.9 1.5-5.4 3.5-6.8 5.8-9.6l0.8-0.9c2.5 3.4 4.4 4.9 5.6 9 1.3 3.7 0.8 11 0.5 12.4-0.5 5.3-1.2 10.5-2.2 15.3-2 9.6-4.8 18.1-7.7 24.9-5.9 13.4-11.7 20.6-12.4 20.2zM806.8 461.9c-0.3-0.5 3.1-2.5 6.5-8.3 3.5-5.7 6.3-15.5 11.2-27.2 4.8-11.6 11.2-25.4 20.3-39.8 4.6-7.1 9.8-14.4 16-21.4 6.2-7.1 13.6-13.4 20.5-19.6l3.8 6.1-7.4 2.6C837.3 365 822.9 402.6 808 424c-13.9 22.7-24.2 35.8-25 35.2-0.8-0.6 7.8-14.5 20.5-37.9 6.7-11.6 13.7-25.7 24.4-40.3 9.2-16.1 28.2-27.1 47.3-33.8l7.6-2.6 20.5-7.1-16.7 13.2c-30.8 24.3-46.6 55.2-57.4 77.6-5.5 11.1-9 20.8-13.6 26.6-4.5 6.1-8.7 7.3-8.8 7zM656.9 562.7c0-1.3 22.3 1.2 58-4.9 17.7-3.2 38.8-8.9 60.5-18.8 5.2-2.6 10.3-5.8 13.7-10.2 1.6-2.2 3.1-4.9 3.2-6.8 0-1.1-0.2-1.4-0.3-1.4 0.1 0-0.4-0.2-1.7 0.2-15.8 6.4-32.1 13-49 19.8l8.2-12c2.4-3.6 5.2-8.8 5-8.5 0.1 0 0.1-0.1-1 0.6-3.2 2-6.5 3.9-9.8 5.6-3.5 1.8-6.3 3.2-10.4 5-6.5 2.9-12.9 5.2-19.1 7.6 2.9-4.8 6.3-10.2 8.6-14.8 1.4-2.8 1.8-3.9 2.3-4.9l1.4-3.4 0.7-1.9 0.1-0.3-1.3 0.9c-3.1 2.4-6.3 4.5-9.5 6.5s-6.5 3.8-9.8 5.4l-3.5 1.6-4.4 2-8.5 3.4c1.9-4.6 4.1-9.5 5.2-13.6l1-4c0.1-0.5 0.5-2.8 0-2.3 0.9-1.2-9.5 13.5-16.7 19.5-7.8 7.2-16 11.7-23 14.2-7.1 2.5-13 3.1-16.9 3-4-0.1-6-0.6-6-0.9-0.1-0.8 8.5 0.5 21.7-5.1 6.5-2.8 14-7.4 21.1-14.5 3.6-3.5 7.1-7.6 10.4-12.2 2.3-2.7 9.2-13.8 15.4-24.8 0.5 0.9 0.5 5.4 0.7 8.2 0.2 3.1 0.3 6.2 0 10.2-0.2 2-0.5 4-0.8 6.1l-0.8 3.5-0.3 1c0.1 0.1 0.4-0.2 0.6-0.3l1.6-0.9c3.1-1.6 6.1-3.4 9.1-5.3s6-4 8.9-6.3c4.1-3.1 11.3-9.9 17-15.3-0.8 4.1-1.5 8.2-2.3 12.4-0.4 2.1-0.9 4.4-1.6 6.7l-1.1 3.5-0.7 1.9c-0.8 2-1.6 4-2.4 6.1l0.1-0.1c2.6-1.2 6.2-3 9.3-4.6 3.2-1.7 6.3-3.5 9.4-5.4 4.3-2.5 12.2-8.2 18.5-12.8l2.6-1.9c-2.9 7.3-4.9 14.2-8.9 22.2l-1.6 3.1h0.1l8.7-3.5c6.5-2.6 13-5.1 19.2-7.6 1.8-0.6 5-1.2 7.9 0.8 2.8 2 3.3 5.4 3.1 7.5-0.5 4.7-2.6 7.7-4.8 10.6-4.6 5.7-10.5 9.2-16.2 11.9-22.8 10-44.3 15.2-62.5 17.8-18.2 2.6-33 2.6-43.2 2.1-9.8-0.2-15.3-1.2-15.2-1.6zM162.5 575c0.2-0.5 6.6 2.1 18.3 6 11.7 3.8 28.9 9 50.7 10.9 21.6 2 48.4 0.5 74.6-11.2 25.9-11.2 51.9-33.3 62.1-64.6 4.9-15.5 5.8-31.9 3-46.9-1.5-7.5-3.9-14.7-7.2-21.3-1.6-3.4-3.4-6.1-5.6-9.6l-5.9-7.9c-2.1-1.7 0.7-1.7 2.3-2.1l5.1-0.9c3.9-0.7 5.1-0.7 7.1-0.9 1.9-0.1 3.7-0.2 5.6-0.2 3.7-0.1 7.3 0.1 10.8 0.3 7.1 0.5 13.8 1.4 20.2 2.1 12.8 1.5 24.8 2 35.2-0.1 10.4-2 19.3-6.7 24.5-13.1 5.3-6.4 7.6-13.7 8-19.5 0.6-12.1-5.8-17.2-5-17.5-0.3-0.4 7.5 4.1 7.9 17.6 0 6.5-2 14.6-7.6 22-5.6 7.6-15.4 13.2-26.6 15.7-11.3 2.6-23.9 2.4-37 1.1-6.5-0.6-13.2-1.3-20-1.7-3.4-0.2-6.8-0.2-10.3-0.1l-5.2 0.3-3.6 0.4c-0.7-0.1 0 0.5 0.5 1.2 1.8 2.8 4.2 6.4 5.9 9.9 3.6 7.1 6.3 14.9 8 23 3.1 16.3 2.2 33.9-3.1 50.6-11 34-39 57.1-66.4 68.6-27.8 11.9-55.7 12.8-77.9 10.2-22.4-2.7-39.6-8.8-51.2-13.4-11.5-5-17.4-8.5-17.2-8.9z" fill="#FFC74A" p-id="4615"></path><path d="M334.4 494.2c-2-0.7-1.9-6-3.2-11.9-1.1-6-3.3-10.8-1.7-12.2 1.4-1.5 7.3 2.6 9 10.7 1.6 8.1-2.2 14.2-4.1 13.4zM307.1 537.6c-1-1.8 2.1-5.5 5.4-10 3.4-4.4 6.2-8.3 8.2-7.8 2 0.4 2 6.6-2.3 12.3-4.3 5.7-10.3 7.2-11.3 5.5zM265.8 561.4c0.1-2.1 5.8-3.6 12.3-6.2 6.5-2.5 11.7-5.4 13.2-3.9 1.5 1.3-2.4 7.6-10.5 10.8-8 3.2-15.2 1.3-15-0.7zM230.3 565.2c-0.6-1.9 4-5 10.4-5.6 6.4-0.6 11.5 1.6 11.3 3.6-0.2 2.1-5 3.2-10.6 3.7s-10.5 0.2-11.1-1.7zM202.7 563.5c0.4-2 2.9-3.2 5.7-2.6s4.6 2.6 4.2 4.6c-0.4 2-2.9 3.2-5.7 2.6-2.7-0.5-4.6-2.6-4.2-4.6zM167.3 551.4c1.2-1.7 5.1-1 9.3-0.1 4.2 1 8 2 8.4 4.1 0.4 2-4.2 4.4-10 3.1-5.8-1.3-8.9-5.5-7.7-7.1zM441.5 315.4c0.5-0.1 1.6 4.4 3.1 12.8 1.3 8.3 3.3 20.8 0.6 36.4-1.5 7.7-4.4 16.1-9.9 23.9-5.4 7.8-14.3 14.5-24.9 17.1-10.5 2.7-22 2.4-33.3-0.2-5.7-1.3-11.3-3.3-16.7-6-6.1-2.6-18.4-12-23.8-15.9l10.5 1.2 8 0.6c2.1 0.1 3.9-0.6 4.8-0.8 0.7-0.2 1.3-0.5 2-0.7 2.6-1.1 5.2-2.7 7.6-4.6 4.7-3.8 8.7-8.5 12.3-13.5 1.8-2.4 3.7-5.2 5-7.4 1.3-2.3 1.4-3.9 0.9-6.4-2.8-10.5-11.8-18-22.5-20-2.8-0.9-6.2-2.1-8.8-5-2.5-2.8-3.5-6.8-3.1-10 0.7-6.4 3.1-11 4-15.5 2.9-9.1-4.7-14.2-12.5-17.6-7.5-3.4-15.8-7-19.3-14.3-3.4-7.3-0.8-14.1 1.3-18.3 4.8-8.7 9-12.1 9.3-11.9 0.6 0.4-3 4.6-6.6 13.1-1.7 4.2-3.1 10-0.2 15.3 2.8 5.3 9.9 8.2 17.8 11.5 3.9 1.8 8.4 3.5 12.3 7.5 4.1 3.9 5.4 10.9 4 16.1-1.1 5.3-3.3 10.3-3.6 14.6-0.3 4.3 2.1 6.7 7.3 8 11.4 1.9 24.2 11.1 27.6 24.9 1 3.5 0.4 8.4-1.5 11.5-1.8 3.2-3.5 5.6-5.5 8.3-3.8 5.3-8.2 10.5-13.6 14.9-2.8 2.3-5.9 4.3-9.4 5.7-0.9 0.3-1.7 0.7-2.6 1l-0.5 0.1 0.1 0.1 2.1 1.1c4.9 2.4 10 4.3 15.2 5.6 10.3 2.5 20.8 2.9 30 0.7 19-4.2 28.5-21.8 31.6-35.7 3.2-14.4 2-26.7 1.5-35-0.8-8.4-1.1-13.1-0.6-13.2z" fill="#FFC74A" p-id="4616"></path><path d="M409.8 273.4c0.3-0.3 3.1 1.5 6.9 6.1 3.8 4.5 8.7 11.8 12.1 22 3.3 10.2 5.2 23.3 2.6 37.5-1.4 7.2-3.5 14.1-7.7 21.5-1.4 1.9-2.8 3.8-5.9 5.1-3.5 1.5-8-0.5-9.4-4-1.9-6.2-0.3-9.2-0.5-13.3 0.3-7.7 0.1-15.2-2.3-21.3-1.9-6.2-8.3-9.9-13-14.4-11.2-9.3-17.9-20.9-21-31.3-3-10.6-1.7-20 1.2-25.4 2.8-5.6 6.1-7.2 6.3-6.9 0.5 0.4-1.9 2.8-3.6 8-1.7 5.2-2.1 13.5 1.2 22.8 3.4 9.2 10 19.6 20.3 27.6 5.2 4.6 12.4 8.5 15.5 17 3.2 7.9 3.3 16.3 3 24.3-0.1 3.8-0.8 8.8-0.1 10 0.1 0.2 0.1 0.1 0.1 0.1 0.5-0.1 1.7-1.2 2.4-2.3 3.2-5.6 5.7-12.5 7-18.8 2.8-12.8 1.6-25-0.9-34.7-5.5-19.5-15.3-28.7-14.2-29.6zM525.8 776.5c0 0.5-4.6 1.2-13.2 2.1-8.5 1-21 1.4-36.4 0.8-30.8-1-73.5-8.1-117.2-26.2-43.6-18.2-78.8-43.5-101.2-64.6-11.3-10.5-19.8-19.6-25.1-26.4-5.4-6.7-8.2-10.5-7.8-10.9 1-0.9 13.3 13.6 36.4 33.4 23 19.8 57.8 43.8 100.6 61.7 42.8 17.7 84.4 25.4 114.7 27.8 30.2 2.5 49.1 0.9 49.2 2.3zM484.1 422.5c-0.3-0.3 0-1.8 2.4-2.6 2.3-0.7 6.3-0.3 9.2 3.6 2.6 3.8 2.4 9.2 1.2 13.8-1.1 4.4-3.5 10.8-10.2 13.7-3.1 1.3-7.3 1.4-10.5-0.6s-4.8-5.2-5.3-8c-1.2-5.8 1.6-10.9 4.2-13.4 5.4-5.3 9.6-6.3 10.1-5.7 0.8 0.9-2.7 3.9-6 8.9-3.9 4.3-1.9 14.9 4.6 11.9 3.1-1.2 5.2-4.9 6.5-8.8 1.4-3.9 1.7-7.1 0.8-9.3-2.1-4.4-6.6-3.1-7-3.5zM466.1 438.5c1.5 1.3-3.1 7.9-12.2 10-9.1 2.1-16.1-1.9-15.3-3.7 0.6-2 6.8-1.8 13.7-3.5 6.9-1.5 12.4-4.3 13.8-2.8zM470 449c1.1 1.7-1.3 5.2-5.4 7.6-4 2.5-8.2 3.1-9.2 1.3-1.1-1.7 1.3-5.2 5.4-7.6 4-2.4 8.1-3 9.2-1.3zM479.1 458.1c1.7 1 0.7 6-3.8 9.9-4.5 3.9-9.6 4.2-10.4 2.4-0.8-1.9 2-4.9 5.5-8 3.6-3 6.9-5.4 8.7-4.3zM490.7 454.3c1.8-0.9 5.3 3.3 4 9.2-1.2 5.9-6.1 8.3-7.4 6.8-1.4-1.5-0.5-4.8 0.1-8.3 0.9-3.5 1.4-6.9 3.3-7.7zM506.3 447.9c1.5-1.6 6.2 2.8 4.1 8.9-2.1 6.1-8.4 6.7-8.7 4.5-0.5-2 0.9-4.3 1.7-6.9 1-2.6 1.3-5.2 2.9-6.5z" fill="#FFC74A" p-id="4617"></path><path d="M520 450.3c0.8 0.5-1.4 7.1-7.4 17-3.1 4.8-7.4 10.6-13.9 15.3-6.3 4.7-15.3 8.5-25 7.5-9.6-1-17.4-5.5-23.7-9.6-6.3-4.2-11.8-8.7-15.5-13.3-8.1-9.6-6.2-18.5-5.2-18 1.1 0 1.2 7.2 9.1 14.5 3.8 3.7 9.1 7.3 15.3 11.1 6.2 3.7 13.2 7.3 20.8 8 15.5 1.4 27.5-10.3 34-18.4 6.6-8.8 10.5-14.7 11.5-14.1zM401.1 459.7c-0.4-0.1-0.9-1.4 0.5-3.2 1.3-1.7 4.5-3.1 8.4-2.1 4.2 1 7.2 5.9 7.4 10.5 0.2 4.7-0.2 9.3-3.9 14.3-4.5 5.4-12.3 4.4-16 1.4-4.4-3.1-5.4-8.5-4.8-11.8 1.4-7.1 5.8-9 6.2-8.3 0.8 0.7-1.4 3.8-1 8.6 0.2 2.3 1.2 4.7 3.4 5.8 2.3 1.3 5.2 1.3 6.6-0.5 1.7-2 2.7-6.3 2.7-9.2 0-3-1-5.1-2.5-6-3.9-2-6.2 0.6-7 0.5zM395 508c-2-0.2-3.3-3.9-2.9-8.2 0.4-4.3 2.5-7.7 4.5-7.5 2 0.2 3.3 3.9 2.9 8.2-0.5 4.4-2.5 7.7-4.5 7.5zM414.8 502.9c-0.6 1.9-4.9 2.2-8.1-1.2-3.2-3.4-2.8-7.7-0.8-8.2 2-0.6 4.2 1.1 6.2 3.1 1.8 2 3.3 4.4 2.7 6.3zM421.4 497.5c-1.1 1.7-4.4 1.5-6.6-1.1-2.2-2.5-2-5.8-0.2-6.7 1.8-0.9 4.2 0 5.8 1.8 1.5 1.8 2.2 4.3 1 6zM435.8 489.7c-1.4 1.5-4.8 0.7-8.1-1.3s-5.7-4.7-5-6.6c0.7-1.9 4.8-2.1 8.8 0.3 4 2.3 5.7 6.1 4.3 7.6z" fill="#FFC74A" p-id="4618"></path><path d="M441.7 481.9c0.9-0.2 3 3.9 2.7 11.2-0.2 7.1-3.5 17.5-12 25.2-8.6 7.6-19.3 9.7-26.4 9.1-7.3-0.6-11.1-3.1-10.8-4 0.3-1.1 4.4-0.5 10.7-1.3 6.2-0.7 14.7-3.3 21.6-9.4 6.9-6.1 10.4-14.3 11.8-20.3 1.5-6.2 1.3-10.3 2.4-10.5zM509.4 480.6c-0.4-0.3-0.2-1.5 1.3-2.9s4.6-2.6 8.2-2.2c3.5 0.4 7.7 2.1 11 5.6 1.6 1.7 3.3 4 3.8 7.3 0.6 3.2-0.6 6.6-2.5 9-3.8 4.8-10.1 6.9-15.4 5.1-5-1.7-7.9-5.6-9.2-8.8-2.6-6.7-0.4-10.9 0.4-10.7 1.1 0.1 1.2 3.9 4.2 8.2 1.5 2.1 3.7 4.1 6.4 4.7 2.3 0.6 5.8-0.7 7.7-3.1 4-4.3-3.1-11.1-7.5-12.3-4.7-1.7-7.5 0.8-8.4 0.1zM498.8 497.5c1.3 1.6-1.2 5.6-6.2 7.4-5.1 1.8-9.5 0.1-9.5-1.9 0-2.1 3.3-3.7 7-5.1 3.8-1.3 7.4-2.1 8.7-0.4zM507.8 509.2c1.5 1.4 0 5.3-2.6 9.1-2.7 3.8-5.8 6.5-7.7 5.6-1.8-0.9-1.4-5.5 1.6-9.8 3.1-4.4 7.3-6.4 8.7-4.9zM525 506.7c2-0.3 4.3 3.6 4 8.8-0.3 5.2-2.9 8.9-4.9 8.3-2-0.5-2.7-4.4-2.5-8.7 0.3-4.3 1.4-8 3.4-8.4zM537.2 501.4c2-0.4 4.7 4.8 4.9 11.7 0.3 6.9-2 12.2-4 12-2-0.2-3.1-5.5-3.4-11.7-0.2-6.3 0.5-11.6 2.5-12z" fill="#FFC74A" p-id="4619"></path><path d="M559.1 514.5c0.4 0 1 2-0.2 5.3-1.1 3.3-4.3 7.7-10 10.6-12 6-28.2 3-45.3 2.4-8.7-1-17.3-2.1-24.9-4.4-7.5-2.8-13.5-7.1-17.7-11.3-8.5-8.5-10.5-15.9-9.7-16.2 1-0.6 4.6 5.6 13.2 12.3 4.3 3.3 9.8 6.6 16.5 8.8 6.9 1.6 14.8 2.5 23.2 3.5 17.1 0.8 33.2 4 42.6 0.2 9.9-3.8 11.3-11.5 12.3-11.2zM225.9 518.3c0.4-0.2 0.8 4.2-4.8 7.1-2.6 1.3-6.7 2.2-10.9-0.2-4.2-2.5-6.1-8.6-4.5-14 3.4-12.2 21.4-15.7 32.7-6.9 5.7 4 10.6 11.4 9.6 20-1 8.5-7.1 14.9-13.5 19.1-12.7 8.6-29 11.1-41.7 7.1-12.6-3.6-22.6-9-30.9-13.9-8.3-4.8-14.3-10.1-18.4-12.7-4.2-2.7-7.2-2.3-7.3-2.9-0.2-0.4 3.2-1.9 8.5 0.3 5.2 2.3 11.3 6.6 19.7 10.7 8.3 4.1 18.5 8.9 30.1 11.8 11.4 3.2 24.5 0.9 35.9-6.6 5.5-3.6 9.8-8.6 10.4-13.9 0.8-5.2-2.3-10.5-6.5-13.7-8.3-6.9-21.5-4.3-23.7 3-1.3 3.6-0.4 7.3 1.8 9 2.2 1.7 5.4 1.7 7.5 1 4.7-1.3 5.5-4.6 6-4.3zM190.5 464.3c-0.1-0.5 4.2 0.6 5 6.8 1.4 6.3-7.3 15.2-18.2 12.4-5.2-1.3-10.4-4.9-13.2-10.8-2.8-6-1.9-13.8 2.4-19.6 4.4-6.3 12.9-8.4 19.7-8.4 6.7 0 15 0.1 21.9 6 6.8 6.4 7 16.1 4.1 23.1-3 7.2-8.7 12-14 15.5-10.9 6.8-22.3 9.7-31.8 10.4-19.3 1.2-30.1-4.9-29.7-5.5 0.3-1.3 11.4 2.8 29.1 0.3 8.7-1.3 19-4.5 28.6-10.9 4.7-3.2 9-7.3 11.1-12.5 2-5 1.4-11.5-2.4-14.9-3.9-3.6-10.6-4.3-16.8-4.2-6.3 0-11.5 1.4-14.4 5.3-3.1 3.8-3.8 9.1-2.2 13 1.6 4.1 5.3 7 8.9 8.2 7.6 2.4 14.2-2.9 13.9-7.3 0.4-4.7-2.4-6.4-2-6.9zM473.9 608.7h15.4c3.7 0 6.6-3 6.6-6.6 0-3.7-3-6.6-6.6-6.6h-15.4c-3.7 0-6.6 3-6.6 6.6 0 3.7 3 6.6 6.6 6.6zM501.1 620.8c-1.9-3.5-5.5-5.7-9.5-5.7h-33.3c-3.7 0-6.6 3-6.6 6.6s3 6.6 6.6 6.6h28.5l-36.3 52.6c-2.1 3-1.3 7.1 1.7 9.2 1.1 0.8 2.5 1.2 3.7 1.2 2.1 0 4.2-1 5.4-2.9l39-56.6c2.4-3.2 2.7-7.5 0.8-11z" fill="#FFC74A" p-id="4620"></path><path d="M503 666.5c-2.6-2.3-11.8-9.6-20-6-5.2 2.3-7.9 8-7.9 16.7v43.5c0 3.7 3 6.6 6.6 6.6 3.7 0 6.6-3 6.6-6.6v-43.5c0-2.2 0.2-3.5 0.4-4.3 1.5 0.5 3.8 1.9 5.5 3.4 2.7 2.4 6.9 2.2 9.3-0.6 2.4-2.6 2.2-6.8-0.5-9.2zM509.2 608.7H584c3.7 0 6.6-3 6.6-6.6 0-3.7-3-6.6-6.6-6.6h-74.8c-3.7 0-6.6 3-6.6 6.6 0 3.7 3 6.6 6.6 6.6zM537 612c-10.8 0-19.5 8.8-19.5 19.5S526.3 651 537 651h22.7c10.8 0 19.5-8.8 19.5-19.5s-8.8-19.5-19.5-19.5H537z m29 19.5c0 3.5-2.8 6.3-6.3 6.3H537c-3.5 0-6.3-2.8-6.3-6.3s2.8-6.3 6.3-6.3h22.7c3.5 0 6.3 2.8 6.3 6.3zM553.4 657h-13.6c-20 0-36.4 16.3-36.4 36.4s16.3 36.4 36.4 36.4h13.6c20 0 36.4-16.3 36.4-36.4S573.4 657 553.4 657z m22 29.7h-22.2v-16.1c0-0.1-0.1-0.3-0.1-0.4h0.3c10.4 0 19.2 7 22 16.5z m-35.6-16.5h0.2c0 0.1-0.1 0.3-0.1 0.4v16.1h-22.2c2.9-9.5 11.7-16.5 22.1-16.5z m-22 29.7H540v16.5h-0.2c-10.4 0-19.2-7-22-16.5z m35.6 16.5h-0.2v-16.5h22.2c-2.8 9.5-11.6 16.5-22 16.5z" fill="#FFC74A" p-id="4621"></path><path d="M520 764.3c-56.1 0-101.7-45.6-101.7-101.7S463.9 560.9 520 560.9s101.7 45.6 101.7 101.7S576.1 764.3 520 764.3z m0-187.7c-47.4 0-86 38.6-86 86s38.6 86 86 86 86-38.6 86-86-38.6-86-86-86zM477.9 767.1c-0.2 1-12.9-0.8-33.1-4.6-19.7-3.7-50-8.8-76.3-26.9-27.2-15.9-50.6-33.1-65.1-48.2-14.7-14.9-20.9-26.4-20.2-26.9 1-0.7 8.6 9.5 23.8 23.1 15 13.8 38.2 29.8 65.2 45.7 26.2 17.9 53.5 22.9 73.7 28.2 20 5 32.2 8.6 32 9.6zM379.2 538.9c-0.6-0.7 3.8-4 10.5-0.9 3.2 1.4 6.6 4.8 8.1 9.2 0.8 2.2 1.3 4.6 1.4 7 0.1 1.2 0 2.5-0.1 3.7l-0.3 2c-0.2 1.1-0.6 2.2-1.2 3.1-1.2 1.9-3.4 2.8-5.6 2.9-2 0-2.6-0.2-3.9-0.3-2.3-0.3-4.6-0.8-6.7-1.7-4.3-1.5-8-5.1-9-8.7-1.1-3.5-0.4-6.7 0.8-8.4 1.2-1.7 2.4-1.9 2.7-1.6 0.7 0.7-1.3 3.8 1.3 7.9 1.2 2 3.2 3.4 6.4 4.3 1.6 0.4 3.3 0.7 5.3 0.9l2.6 0.2 0.2-1.3c0.1-0.9 0.2-1.9 0.2-2.8 0-1.8-0.2-3.5-0.6-5-0.8-3.1-2.4-5.3-4.3-6.9-3.8-3.1-7.5-2.6-7.8-3.6zM362.2 568.4c1.2 1.6-0.4 5-3.7 7.5-3.3 2.5-7 3.2-8.2 1.6-1.2-1.6 0.4-5 3.7-7.5 3.3-2.5 7-3.3 8.2-1.6zM378 577.6c1.4 1.4-0.9 6.1-5.3 10.5-4.4 4.3-9.1 6.7-10.5 5.2-1.4-1.4 0.9-6.1 5.3-10.5 4.4-4.3 9.1-6.6 10.5-5.2zM395.4 577.7c2 0.4 2.7 4.9 2.3 10.1-0.4 5.2-1.8 9.5-3.9 9.6-2 0.1-3.9-4.4-3.5-10.2 0.5-5.8 3.1-10 5.1-9.5zM400.1 558.2c1.3-1.5 7.5 2.2 10.8 9.9 3.3 7.7 1.7 14.8-0.3 14.7-2.1 0-3.8-5.6-6.5-11.8-2.6-6.2-5.5-11.3-4-12.8zM429.3 550.1c0.9 1.8-2.8 5.5-8.7 6.1-6 0.6-10.3-2.3-9.8-4.2 0.5-2 4.5-2.7 9-3.2 4.5-0.4 8.6-0.6 9.5 1.3z" fill="#FFC74A" p-id="4622"></path><path d="M447.4 533c0.8-0.1 3 10.5-1.2 27.1-4.1 16.3-16.2 38.4-38.8 52.5-5.7 3.3-11.3 6.3-17.5 7.9-5.9 2.3-12.5 2.6-18.2 1.9-11.7-1.5-21-6.7-27.8-11.6-13.5-10.2-19.8-18.3-19.3-18.9 0.8-1 8.6 5.9 22.2 14.5 6.8 4.1 15.5 8.2 25.6 9.2 5 0.4 10.2 0.2 15.4-2 5.3-1.4 10.6-4.3 15.7-7.2 20.6-12.8 32.5-32.8 37.7-47.7 5.2-15.4 4.9-25.7 6.2-25.7z" fill="#FFC74A" p-id="4623"></path><path d="M491.7 518c0.9 0.3 0.6 4.6-1.3 11.1s-5.4 15.7-12.7 24c-7.3 8.4-17.1 12.7-24.3 13.3-7.4 0.7-11.5-1.7-11.3-2.5 0.2-1.1 4.4-0.8 10.3-2.6 5.9-1.7 13.5-6 19.8-13.1 12-14.6 17.1-31.3 19.5-30.2zM593.3 602.5c-0.7-0.9 1.6-3.4 3.4-7.8 1.9-4.4 2.8-10.9-1-16.4-3.7-5.6-9.9-6.5-14.2-5-4.3 1.3-6.2 4-7.2 3.6-0.9-0.2-0.6-4.7 4.9-8.3 2.7-1.6 6.6-2.8 11-2.1 4.5 0.7 8.8 3.6 11.6 7.7 5.9 8.5 3.1 18.8-0.6 23.2-3.7 4.8-7.4 5.8-7.9 5.1z" fill="#FFC74A" p-id="4624"></path><path d="M616.9 625.7c-0.8-0.7 1-3.7 3.5-8s5.4-10.5 2.7-16.1c-2.6-5.9-8.6-8.1-13-7.5-4.5 0.4-7.2 2.3-8 1.5-0.7-0.5 0.8-4.4 6.8-6.6 5.5-2.6 16.9-0.1 21 9.6 2.1 4.6 1.8 9.9 0.3 13.7-1.5 3.9-3.7 6.6-5.6 8.6-4 3.9-7 5.4-7.7 4.8zM616.7 667.4c-0.3-1 2.7-2.7 6.4-6.1 1.8-1.7 3.8-3.9 5.6-6.6 1.8-2.8 3.4-6 2.3-7.4-3.4-6-8-12.4-11.9-13.2-4.2-1.5-7 0.4-7.7-0.3-1-0.3 1.5-5.3 8.6-4.8 3.4 0.2 7.3 2.2 10.1 5.1 3 3.2 5.1 5.5 7.7 10.6 1.3 2.8 0.8 6.6-0.3 8.7-1 2.3-2.2 3.9-3.4 5.5-2.5 3.2-5.4 5.4-8.1 6.8-5.2 2.8-9.1 2.6-9.3 1.7z" fill="#FFC74A" p-id="4625"></path><path d="M598.6 712.1c-0.1-1.1 3.9-1.9 9.6-4 5.6-2.1 13.1-6 17-13.5 4.2-7.5 1.9-15.2-2-19.1-3.7-4.1-7.8-4.6-7.7-5.7-0.3-0.8 4.8-2.7 11.2 1.7 3 2.2 6 5.8 7.3 10.8 1.3 5 0.5 10.8-2.2 15.8-5.4 10.3-15.8 14.2-22.2 15.1-6.9 0.9-11-0.2-11-1.1zM574.9 746c0.3-1 4.2-0.5 10.1-1 5.9-0.4 14-2.3 23.1-4.8l2.7-0.7h0.1c0.2-1.2 0.2-3.9 0.1-5.6-0.2-3.8-0.8-7.2-1.8-9.7-1.8-5.2-5.5-6.6-5.2-7.7-0.1-0.9 5.6-1.2 9.8 5.2 2 3 3.3 7.1 4 11.5 0.3 2.4 0.5 4.1 0.2 7.5-0.3 2.2-1.7 4.3-3.8 5.3-2.3 1-2.8 0.9-4.1 1.3-9.3 2.6-18.5 3.9-25.2 2.9-6.7-0.9-10.3-3.4-10-4.2zM536.9 758.8c0.9-0.6 3.3 1.8 7.5 4.6 4.1 2.7 10.7 5.9 17.3 4.9 6.6-0.9 8.6-7.1 8.2-11.7-0.4-4.5-2.8-6.9-2.2-7.8 0.3-0.9 4.9 0.2 7.3 6.6 1 3 1.4 7.2-0.4 11.4-1.7 4.4-6.5 8-11.6 8.8-10.4 1.5-18-4-22-8.2-4.1-4.4-5-8.1-4.1-8.6zM532.7 765.5c0.9 0 2.7 3.6 2.9 10.7 0 3.5-0.9 8.3-4.4 12.4-1.7 2-4.2 3.8-7.4 4.6-3.2 0.8-6.4 0.1-9-0.8-5-1.8-9.7-4.3-13.1-8.2-3.5-3.7-4.9-9-4.1-12.8 1.5-8.3 8.2-9.3 8-8.2 0.4 0.9-3.1 3.1-2.8 8.6-0.2 5.3 5.7 10.7 14.4 13.6 7.5 3.4 12.3-4.1 13.3-9.7 1-5.9 1.1-10.2 2.2-10.2z" fill="#FFC74A" p-id="4626"></path><path d="M501 761c0.8 0.3 0.5 4.7-4 9.9-4 5.1-14.6 10.7-25.4 6.3-5.2-2-9.4-6-11.2-10.7-1.9-4.7-1.5-9.2-0.4-12.6 2.5-7 7.4-8.5 7.7-7.7 0.7 0.9-2.1 3.6-2.6 8.9-0.8 5.2 1.8 12.4 9.3 15.2 7.3 3 14.7 0.1 19-3.2 4.5-3.4 6.6-6.6 7.6-6.1z" fill="#FFC74A" p-id="4627"></path><path d="M465.6 744.2c0.8 0.3 0.3 4.9-4.9 9.7-4.9 4.6-15.4 9-26.2 4.2-2.6-1.2-5.4-3.2-6.8-6.6-1.3-3.4-0.7-6.2-0.3-8.2 0.8-4.1 1.8-8 3.4-11.1 3.3-6.6 8.6-7.6 8.7-6.6 0.5 1-2.5 3.1-3.9 8.6-0.7 2.7-1.2 6.1-1.5 10.1-0.3 4.3-0.1 5.3 3.5 7.2 7.1 3.3 15.3 1.1 19.9-1.7 4.9-2.8 7-6.1 8.1-5.6z" fill="#FFC74A" p-id="4628"></path><path d="M437.1 723.3c0.9 0.5-1.6 4.9-8.3 6.5-3.3 0.8-6.8 1.3-11.4 1-4.4-0.1-10.3-2.6-13.6-7.2-3.4-4.5-4.5-10.3-3.2-15.2 1.3-4.9 4.5-8.2 7.4-10 6.2-3.7 10.9-1.9 10.6-1.1 0 1.1-3.8 1.6-7.5 5.2-3.9 3.4-6.1 10.6-1.5 16.6 3.9 5.9 12.7 5.3 18.2 5.4 5.7 0.1 8.5-1.9 9.3-1.2zM418.8 688.1c0.1 0.9-3.9 2.7-11 1.6-3.4-0.6-7.7-2.1-11.4-5.5-3.8-3.4-6.5-8.8-6.6-14.7-0.3-5.9 2.9-12 7.3-14.8 4.4-2.9 8.9-3.4 12.3-3.4 6.9 0.1 10.6 1.7 10.6 2.6 0 1.1-4.2 1.5-10.1 2.6-5.9 1-13.1 4.7-12.7 12.8 0 8.1 6.6 13.3 12 15.3 5.5 2.2 9.5 2.3 9.6 3.5zM422.9 645.2c0.5 0.7-3.5 4.4-11.8 4.6-4.1 0.1-9.1-0.9-13.9-3.9-2.4-1.5-5-3.8-6.3-7.3-1.3-3.6-0.8-7.5 0.5-10.6 6-12.1 16.4-17.2 24.6-18.8 4.5-0.8 8.6 1.6 9.6 3.9 1.3 2.4 0.4 3.9 0 3.8-0.7 0.1-2.6-4.7-8.5-2.7-5.8 2-14.8 8.1-18.8 16.5-4.1 7.9 7.2 12.9 13.2 13.8 6.6 1.1 11-0.4 11.4 0.7z" fill="#FFC74A" p-id="4629"></path><path d="M447.7 589.5c0.2 1.1-3.9 1.9-8.8-0.3-5-2.2-9.9-4.4-13.2 0.2-3.7 4.4-2.7 10.5-1.5 15 1.2 4.5 2.1 7.7 1.1 8.2-0.9 0.4-3.3-1.6-6-6.2-1.3-2.3-2.7-5.3-3.1-9.2-0.5-4 0.6-8.7 3.6-12.5 2.8-3.9 8.7-6 12.9-4.7 4.2 1.1 6.5 3.2 8.5 4.6 3.9 3.1 6.4 3.9 6.5 4.9z" fill="#FFC74A" p-id="4630"></path><path d="M475.9 570c-1 0.4-2.7-2.1-6.6-3.5-3.8-1.6-9.4-1.3-14.8 2.5-5.3 3.7-8.4 9-9.5 13.1-1.2 4.1-0.6 7.1-1.6 7.5-0.8 0.5-3.6-2.3-3.6-8.1-0.1-5.7 3.3-13.6 10.5-18.6 7-5.4 17.1-4.9 21.6-1 4.8 3.7 4.9 8 4 8.1z" fill="#FFC74A" p-id="4631"></path><path d="M515.3 563c-0.9 0.5-3.4-2.7-7.1-7.3-3.5-4.5-9.8-10.2-17.2-9.4-6.8 0.9-11.1 9-12.1 14.1-1.2 5.5-0.4 9.3-1.4 9.6-0.8 0.4-3.7-3.1-3.8-10.1 0-3.5 0.8-7.7 3.3-11.8 2.3-3.9 6.7-8.4 13-9.1 12.6-1.1 19.8 8.4 22.5 13.9 3 5.8 3.6 9.6 2.8 10.1z" fill="#FFC74A" p-id="4632"></path><path d="M545.2 561.8c-1 0.1-2.7-2.9-4.6-7.7-1-2.3-1.7-5.5-3.2-8-1.4-2.5-3.2-3.7-6.2-3.9-6.2-0.5-11 4.2-14.1 8.2-3.1 4-5.3 6.7-6.2 6.2-0.9-0.4-0.5-3.8 1.8-9 1.2-2.6 3-5.6 6.1-8.4 3.2-2.8 7.8-4.8 13-4.5 5.3 0 10.4 4.3 11.7 8.3 1.7 3.8 1.7 6.9 2.2 9.7 0.7 5.7 0.5 9-0.5 9.1zM571.9 575.5c-0.9-0.6 0.8-3.9 2.7-8.6 0.9-2.4 1.7-5.1 1.3-7.9-0.3-2.9-1.6-5.5-3.9-6.5-5.3-2.2-12.7 1-16.2 4-3.9 3.1-5.6 6.1-6.6 5.7-0.9-0.2-1-4.3 2.8-9.3 3.7-4.6 11.9-11 23-7.1 5.7 2.6 7.7 8.7 7.6 12.9 0 4.6-1.9 8.2-3.5 10.6-3.5 4.9-6.4 6.7-7.2 6.2zM823.1 551.3c0.8 0.4-3.8 12.7-14.3 31.3-10.4 18.6-27.1 43.1-49.4 66.9-22.3 23.7-45.7 42-63.6 53.5-17.9 11.6-29.9 17-30.3 16.2-1.3-2 44.8-27.8 88.5-74.8 44.2-46.6 67-94.3 69.1-93.1zM296.4 600.8c-1-0.4 3.3-5.5 10.8-2.1 3.3 1.5 7.3 5.3 7.6 11 0.3 5.5-2.7 11-7.4 14.3-4.7 3.4-10.7 4.4-15.8 2.7-5.3-1.6-8.5-6.7-8.3-10.8 0.1-2.2 0.7-5 2.4-5.6 2-0.5 3.4-0.5 4.1-0.4 1.8 0 2.8 0.3 3 0.8 0.1 0.5-0.7 1.2-2.3 2-2.3 0.9-2.4 1.3-1.9 2.9 0.5 2.1 2.2 4.1 5 4.7 2.8 0.6 6.6 0 9.5-2.2 3-2.1 4.8-5.4 4.9-8.1 0.2-2.6-1.5-5.1-3.4-6.6-4-3.4-7.6-1.7-8.2-2.6zM271.8 607.9c1.3 1.6-0.8 6.2-4.7 10.3-3.9 4.1-8.5 6.4-10.1 5.2-1.6-1.3 0.5-5.9 4.7-10.3 4.2-4.5 8.7-6.8 10.1-5.2zM275.7 627.6c1.6 1.2 1.1 4.6-1.1 7.5-2.2 2.9-5.3 4.2-6.9 2.9-1.6-1.2-1.1-4.6 1.1-7.5s5.3-4.2 6.9-2.9zM291.3 635.4c2-0.1 3.7 4.7 1.2 9.9-2.6 5.2-7.5 6.6-8.6 5-1.2-1.7 0.3-4.9 2-8.3 1.7-3.4 3.3-6.6 5.4-6.6zM308.6 630.1c1.9-0.7 4.7 2.3 5 6.9 0.4 4.5-1.9 7.9-3.9 7.6-2-0.3-3.2-3.5-3.5-7-0.3-3.5 0.4-6.8 2.4-7.5zM341.1 630.6c-0.8 1.9-5.9 2.1-11.4 0.5s-9.7-4.6-9.3-6.6c0.4-2 5.5-2.3 11.4-0.5 5.9 1.8 10.1 4.7 9.3 6.6z" fill="#FFC74A" p-id="4633"></path><path d="M363.7 607.9c0.8 0.2-0.4 10.9-7.8 26.6-3.8 7.7-9.3 16.8-17.9 24.8-8.5 8.1-20.5 14.6-34.2 16.3-13.6 1.9-27.6-1.9-36.8-9.7-9.2-7.8-14.4-16.9-18.7-24.2-9.1-14.4-11.2-25.6-9.9-25.7 0.9-0.1 4.3 9.3 14.4 23 4.8 6.9 10.3 15.3 18.5 21.6 8.1 6.4 19.7 9.4 31.6 7.7 24.7-3 40.5-22.3 48.4-36.2 8.2-14.5 11.3-24.6 12.4-24.2zM358.1 637.8c-0.3-0.3 0.5-1.7 3-1.6 2.4 0.2 5.1 2.1 7.1 5.3 3.6 5.7 6.1 15.6 3.1 25.8-0.7 2.5-1.7 4.9-3 7.1-1.4 1.9-2.1 4.6-6.4 6.3-1.9 0.6-3.9 0.1-5.4-0.8-1.4-1-2.2-1.8-2.9-2.9-1.4-2.1-1.9-4.3-2-6.1-0.1-7.3 2.4-10.5 3.2-10.4 1.2 0.1 0.7 4.4 2 9.6 0.4 1.2 0.9 2.4 1.7 3.2 1.1 1.1 1.5 1.1 1.5 0.8-0.3 0.3 1.1-1.4 1.9-3.2 0.9-1.7 1.7-3.7 2.3-5.7 2.4-8.1 1.2-16.1-0.7-21.5-1.8-5.2-4.8-5.3-5.4-5.9zM345.4 667.1c1.6 1.3-0.3 6.2-4.3 11-3.9 4.8-8.4 7.6-10 6.2-1.6-1.3 0.3-6.2 4.3-11 4-4.7 8.4-7.5 10-6.2zM357.9 682.5c1.9 0.6 1.4 6.6-1.1 13.4-2.6 6.8-6.2 11.6-8.1 10.8-1.9-0.8-1.4-6.8 1.1-13.4 2.6-6.6 6.2-11.4 8.1-10.8zM379.7 698.1c-1.6 1.3-5.3-0.5-8.2-4.1-3-3.6-4.1-7.5-2.5-8.8 1.6-1.3 5.3 0.5 8.2 4.1 3 3.6 4.1 7.5 2.5 8.8zM387.3 676c-1 1.8-5.2 1.4-9.5-0.8s-7-5.6-6.1-7.4c1-1.8 5.2-1.4 9.5 0.8 4.4 2.3 7.1 5.6 6.1 7.4z" fill="#FFC74A" p-id="4634"></path><path d="M245.5 632.8c0.6 0.7-1.8 4.3-7.8 7.4-5.8 3.2-15.6 5.4-25.9 2.6-10.3-2.9-17.5-9.9-20.8-15.7-3.5-5.8-3.6-10.1-2.8-10.4 1.8-1 8.4 14.1 25.6 18.9 17.1 4.9 30.7-4.5 31.7-2.8zM215.3 600.4c0.5-0.8 3.2-0.5 7.1 1.8 1.9 1.2 4.2 3.1 5.8 6.4 1.5 3.6 1.5 7.9-1.3 11.8-2.9 4.4-9.7 4.3-12.3 2.1-3-1.9-4.6-4-5.8-6-2.4-4-2.3-6.9-1.4-7.2 1-0.4 2.6 1.6 5.4 3.9 2.8 2.6 7.5 5 8.3 2.7 2.2-2.8 0.6-6.8-2-9.7-2.5-2.9-4.4-4.9-3.8-5.8z" fill="#FFC74A" p-id="4635"></path><path d="M151.6 302.7s-14.2 0-18.4-24.5c-4.2-24.5-90-20.3-35.3 95-45.6 69.1-36.9 99.2-29.4 109.6 7.5 10.5 82.3 14 79.8-17s3.3-163.1 3.3-163.1z" fill="#FF0303" p-id="4636"></path><path d="M545.8 478c-0.9 0.4-8.4-13.1-19.8-35.4-11.2-22.4-26.7-53.2-43.9-87.2-17.4-33.8-35.7-62.9-50.7-82.8-7.6-9.8-13.7-18-18.4-22.7-4.9-4.7-9-4.5-8.9-5.1-0.3-0.4 4.6-1.7 10.8 2.9 5.9 4.5 12.4 12.1 20.7 21.7 16.2 19.3 35.6 48.5 53.1 82.6 17.7 34 31.7 65.6 42 88.4 10.2 22.8 16 37.2 15.1 37.6z" fill="#FFC74A" p-id="4637"></path><path d="M547.3 475c-0.1-0.5 2.7-0.6 5.9-3.7 3-3 6.3-9.7 3.8-17.4-2.2-7.9-9.6-15.4-17.4-24.6-8.8-10.4-18.5-22-29.1-34.5 11.1-2.2 10.5-3.7 12.2-6.6 1.3-2.9 1.6-6.4 1.1-9.9-0.8-6.9-6.5-12.4-13.1-17.6-7.8-5.9-17-12.5-22.2-21.6-5.5-8.7-7.7-19.3-7.8-28.1-0.1-8.4-4.7-14.2-10.3-19.7-5.7-5.5-10.9-10.6-15.7-15.2-9.6-9.4-17.3-17-22.5-22.5-2.3-2.9-4.9-4.3-5.5-2.3-0.2 1.8 1.5 1.5 1.3 1.3 0.1-0.1-0.6-0.2-1.2-0.1-0.6-0.2-1.1-1.2-0.9-2.4 0-1.3 1.8-2.3 3.7-1.7 1.8 0.5 3.2 1.8 4.6 3 5.8 4.8 14.1 11.9 24.1 20.7 5 4.5 10.5 9.4 16.5 14.7 3 2.8 6 5.9 8.5 9.9 2.6 3.9 4 9.1 4.3 13.7 0.4 8.9 2.4 17.1 7.2 24.9 4.6 7.9 12.1 13.2 20.6 19.6 6.7 5.2 14.6 12.3 15.8 22.3 0.6 4.7 0.2 9.5-1.8 13.9-1.1 2.2-2.4 4.3-4.5 6-3 2.2-1.6 1-2.1 1.4 7.8 9.8 15 18.9 21.5 27 7.2 9.3 14.9 17.7 17.1 27.3 2.3 9.7-2.4 17.3-6.4 20.3-4.7 3-7.8 2.1-7.7 1.9zM807 615.5c0.8 0.5-3.5 10-12.6 24.1-9.1 14.1-23.6 32.5-42.3 50.2-18.7 17.7-38 31-52.6 39.3-14.6 8.3-24.4 12-24.8 11.2-1.1-2 35.7-21.1 72.3-55.9 36.9-34.5 58-70.2 60-68.9z" fill="#FFC74A" p-id="4638"></path><path d="M705.1 741.4c0-0.6 2.7-0.5 6.1-2.8 1.7-1.2 3.4-2.8 4.5-5.5 1.4-2.6 1.7-6.6 5.6-10.4 1.8-1.6 4.6-3.3 8.3-2.5 3.8 1.1 5.1 3.7 6.3 3.9 2.7 1.3 7.2 0.1 9.9-3 3-3.2 5-8.3 7.5-13.7 2.5-5.3 5-10.7 7.6-16.3 1.5-2.7 1.9-5.5 5.4-9.1 4-3.3 8.4-2.7 11-2.6 5.1 0.4 9.5-1.3 13.2-4.2 7.5-6 10.6-15 11.3-22.6 1.1-15.5-1.3-25.7 0.1-25.8 0.6-0.1 4.9 9.2 5.2 26.2-0.1 8.3-2.9 19.6-12.2 27.5-4.4 3.9-11.2 6.7-17.8 6.2-3-0.2-5.2 0.1-5.9 0.9-0.9 0.7-2.3 4-3.6 6.7-2.7 5.6-5.3 11-7.8 16.3-2.6 5.1-4.7 10.7-9.2 15.3-4.5 4.6-11.6 6.9-17.7 3.7-3.1-1.9-4.2-3.9-4.9-3.8-0.8-0.3-2.2 0.1-3.4 1-2.3 1.7-3.5 5.4-5.4 8.3-1.8 3.1-4.6 5.2-6.9 6.1-4.6 1.8-7.4 0.6-7.2 0.2zM687.9 737.7c1.3 1.6 2.9 3 4.9 3.4 2.5 0.6 7.6-0.2 8.2 1.8 0.7 1.4-1.8 6.2-9.8 5.4-4.4-1.1-6.4-4.7-6.3-7.5 0.2-2.9 2.3-3.7 3-3.1zM345.5 767.3c0.3 0.2-1.8 4.8-8.6 10.7-6.7 5.7-19 12.8-35.7 11.9-16.2-0.7-36.3-11.2-45.3-31.7-4.5-9.6-7.3-20.3-14-27.8-6.5-7.8-17.6-8.2-29.6-8-11.7 0.8-27.1-3.4-33-16.2-3.4-6.7 0.4-15.2 4.3-18.8 3.9-4.1 5.8-7.2 5-11.1-0.7-3.8-3.8-7.4-7.3-9.9-3.5-2.7-7.4-4.1-11.8-5.3-8.5-2.4-17.9-4.2-24.4-10.4-6.6-6.1-8.2-14.8-6.9-21.4 1.3-6.8 5.5-11.5 9.3-14 8-5.1 13.7-3.4 13.5-3.1 0.1 0.7-5.2 0.2-11.8 5.4-3.1 2.6-6.3 6.8-6.9 12.4-0.7 5.5 1.1 12.4 6.4 16.8 5.2 4.6 13.4 6.2 22.5 8.3 9 2 20.6 7.1 24.2 19.8 0.7 3.2 0.3 6.8-1.1 9.8-1.5 3-3.5 5.2-5.2 7.2-3.5 3.9-4.7 7.4-3 11.3 1.7 3.9 5.9 7.3 10.5 9.3 4.6 2.2 9.8 2.3 15.8 2.3 5.9 0 12-0.2 18.3 1.1 6.3 1.1 12.4 4.7 16.6 9.4 8.2 9.7 10.6 20.9 14.8 29.8 7.5 18.2 25 28 39.5 29.3 14.9 1.4 26.7-4.3 33.5-9 7-4.5 9.9-8.5 10.4-8.1z" fill="#FFC74A" p-id="4639"></path><path d="M384 787.1c-0.7 1-13.6-9.1-38.8-16-12.4-3.8-27.7-7.1-44.3-13.4-16.7-6.2-33.4-17.5-47.9-31.7-14.6-14.2-26.5-29.3-37.4-42.7-10.8-13.5-20.6-25.8-28.8-36-16.2-20.6-25.8-33.7-25.1-34.4 0.8-0.7 11.8 11.3 29.1 31.1 8.5 10 18.7 21.8 30 35s23.2 28 37.3 41.7c14.1 13.8 29.5 24.4 45.3 30.7 15.7 6.4 31 10.3 43.4 14.8 25.5 8.3 37.9 20.4 37.2 20.9zM663.1 581c-0.5-0.8 3.5-3.5 9.5-0.6 2.8 1.4 5.9 4.3 7.1 8.8 1.4 4.6-0.8 10.5-5 13.6-4.1 3.2-9.5 4.1-14 2.4-4.4-1.7-7.1-5.6-7.4-9.3-0.2-4 2.2-6.3 3.9-7.1 1.8-0.8 2.9-0.2 2.9 0.2 0.1 0.8-2.8 2.8-1.7 6 1 3.3 6.9 5.8 11.7 1.9 4.8-3.5 2.9-9.4-0.5-12.1-3-2.9-6.2-2.8-6.5-3.8z" fill="#FFC74A" p-id="4640"></path><path d="M699.5 572.4c1 0 2.4 5.7 2.8 15.4 0.2 9.3-0.2 24.5-11.5 36.6-2.8 2.9-6.5 5.5-10.9 6.2-4.3 0.7-8.2-0.3-11.4-1.5-6.2-2.5-10.9-5-15.3-7.2-8.4-4.3-13.4-7.4-13-8.4 0.4-0.9 6.1 0.5 15.1 3.6 8.9 2 22 12.2 30.2 2.1 9-9.4 10.6-22.6 11.6-31.6 0.9-9.2 1.3-15.2 2.4-15.2zM720.8 575.6c-0.1-0.9 4-2.3 10 0.4 2.9 1.4 6.2 3.9 8.4 8 2.2 4.2 2.3 10-0.1 14.8-2.3 4.8-7.3 8.5-12.5 8.6-5.2 0-8.9-2.8-10.9-5.5-4.3-6-1.3-10.8-0.5-10.2 1 0.3 0.8 3.8 4.4 6.7 3.5 3.2 9.9 3.4 12.9-2.8 3.2-6-0.4-12.1-4.3-15-4-3.2-7.5-3.9-7.4-5z" fill="#FFC74A" p-id="4641"></path><path d="M761.5 569.9c1 0.1 1.5 6.3 0.6 16.3-0.4 5-1.3 10.9-2.6 17.4-1.5 6.2-2.3 14.4-9.2 21.2-7.1 6.4-16 6.5-22.6 6.2-6.9-0.5-12.5-1.6-17.5-2.4-9.8-1.7-15.8-3.3-15.7-4.3 0.1-1 6.3-1.3 16.2-0.9 4.9 0.2 10.7 0.5 17.2 0.8 6.1 0 13-0.7 17.4-4.8 4.4-4 5.8-11.1 7.6-17.3 1.5-6.3 2.9-11.9 4.1-16.7 2.1-9.6 3.4-15.6 4.5-15.5zM682.8 629.3c-0.1-0.9 4-2 9.3 1.5 2.5 1.7 5.1 4.6 6.4 8.7 1.3 4.1 0.8 9.3-1.7 13.5-1.2 2.1-2.8 4-4.7 5.4-1.9 1.4-3.5 2.4-7.1 3.2-3.2 0.5-5.7-2-6.1-4.8-0.6-2.7-0.4-3.6-0.4-5.3 0.5-5.9 3-8.8 3.9-8.4 1 0.4 0.5 3.6 1.3 8.2 0.2 0.9 0.6 2.8 0.9 3.1 0.2 0.2 0.4 0.2 0.6 0.1-0.3 0.1 1.4-0.8 2.4-1.7 1.1-0.9 2-2.1 2.8-3.4 3.3-5.5 1.2-11.3-1.8-14.7-2.8-3.3-5.9-4.3-5.8-5.4z" fill="#FFC74A" p-id="4642"></path><path d="M727.1 652.3c0.7 0.6-2.2 5.8-9 12.8-6.4 6.7-19.3 16-35.6 14-16.1-1.5-27.5-13.2-31-22.4-4-9.4-2.7-15.8-1.8-15.8 1.1-0.1 1.9 5.8 6.5 13.3 4.4 7.5 14 16.2 27.2 17.5 13.2 1.7 24.2-5.1 31.3-10.6 7.2-5.6 11.6-9.6 12.4-8.8zM132.4 470.2c0 0.6-4.1 0.3-10.7 2.5-3.3 1.1-7.1 2.9-10.9 6.1-2 1.5-4.3 3.6-7.8 4.6-3.5 1-7.2 0.4-10.5-0.9-13.5-4.9-24.1-21.3-23.3-39.7 0.5-18.6 11.7-36.2 23.7-51.5 5.7-7.8 11-15.6 13.4-23.8 2.5-8.2 1.4-16.3-1.9-23.7-3.2-7.5-7.5-14.4-10.6-21.8-2.9-7.4-4.4-15.1-3.3-22.1 1.1-7.1 5.3-13 10.4-15.7 5.1-2.7 10.2-2.7 14-1.9 7.7 1.9 10 6.3 9.6 6.3-0.4 0.6-3.3-2.7-10.1-3.5-3.3-0.3-7.6 0.2-11.4 2.6-3.8 2.4-6.8 7.1-7.3 12.8-0.6 5.8 0.9 12.5 3.7 19 3 6.6 7.5 13.3 11.2 21.5 3.8 8 5.6 18.7 2.6 28.4-2.8 9.8-8.6 18.2-14.4 26.2-12.1 15.5-22 31.2-22.8 47.4-1 15.8 7.6 30.1 18.4 34.6 5.5 2.7 9.7 1.1 13.9-2.2 4.4-3.1 8.9-4.8 12.6-5.5 7.5-1.5 11.6-0.1 11.5 0.3z" fill="#FFC74A" p-id="4643"></path><path d="M174.3 379.1c1.4 1.6-16 17.4-31.4 41-7.6 11.8-12.2 23.5-13.4 32.5-1.3 8.9 0 14.7-1.1 15-0.8 0.3-4.1-5.2-4.1-15.3-0.1-10.1 4.2-23.6 12.3-36.1 16.4-25.1 36.6-38.7 37.7-37.1z" fill="#FFC74A" p-id="4644"></path><path d="M172.2 392c-0.7 0.6-5.8-3.7-10.9-13.1-4.8-9.5-10-23.7-6.7-41.2 0.7-4.1 5.5-9.3 4.3-7.7 0.1 0 0.3 0.1-2.9-2.6-2.4-2-4.5-4.1-6.5-6.1-4-4-7.2-7.8-9.7-11.2-5-6.7-7.2-11.3-6.5-11.8 0.8-0.6 4.2 3 10 8.7 2.9 2.8 6.4 6.1 10.5 9.7 4.8 4.1 6.4 5.5 18.6 14.3l-6.4 2.7c-0.8 0.5-1.5 1.1-2 1.4-0.2 0.3-0.4 0.4-0.6 0.7-0.7 1-1.3 2.4-1.7 3.8-2.7 13.5 1 28 4.3 37 3.6 9.4 7.1 14.7 6.2 15.4z" fill="#FFC74A" p-id="4645"></path><path d="M245.2 345.1m-40.2 0a40.2 40.2 0 1 0 80.4 0 40.2 40.2 0 1 0-80.4 0Z" fill="#CE0000" p-id="4646"></path><path d="M245.2 387.2c-23.2 0-42-18.9-42-42s18.9-42 42-42c23.2 0 42 18.9 42 42s-18.8 42-42 42z m0-80.5c-21.2 0-38.4 17.2-38.4 38.4s17.2 38.4 38.4 38.4 38.4-17.2 38.4-38.4-17.2-38.4-38.4-38.4z" fill="#FFC74A" p-id="4647"></path><path d="M237.2 345.1m-32.2 0a32.2 32.2 0 1 0 64.4 0 32.2 32.2 0 1 0-64.4 0Z" fill="#FF0303" p-id="4648"></path><path d="M237.2 379.1c-18.7 0-34-15.3-34-34s15.3-34 34-34 34 15.3 34 34c0 18.8-15.3 34-34 34z m0-64.3c-16.7 0-30.4 13.6-30.4 30.4 0 16.7 13.6 30.4 30.4 30.4s30.4-13.6 30.4-30.4c-0.1-16.8-13.7-30.4-30.4-30.4z" fill="#FFC74A" p-id="4649"></path><path d="M228.9 345.1m-24 0a24 24 0 1 0 48 0 24 24 0 1 0-48 0Z" p-id="4650"></path><path d="M228.9 370.9c-14.2 0-25.8-11.6-25.8-25.8 0-14.2 11.6-25.8 25.8-25.8s25.8 11.6 25.8 25.8c0 14.3-11.5 25.8-25.8 25.8z m0-47.9c-12.2 0-22.1 9.9-22.1 22.1 0 12.2 9.9 22.1 22.1 22.1 12.2 0 22.1-9.9 22.1-22.1 0.1-12.2-9.9-22.1-22.1-22.1z" fill="#FFC74A" p-id="4651"></path><path d="M217.4 345.1m-12.4 0a12.4 12.4 0 1 0 24.8 0 12.4 12.4 0 1 0-24.8 0Z" fill="#FFC74A" p-id="4652"></path><path d="M242.9 345.1m-5.7 0a5.7 5.7 0 1 0 11.4 0 5.7 5.7 0 1 0-11.4 0Z" fill="#FFC74A" p-id="4653"></path><path d="M316.8 307.2c0.8 0.3-6.8 12-22 18.4-15.1 6.6-28.8 4.2-28.5 3.4 0-1.1 13-0.2 27.1-6.5 14.3-6 22.6-16 23.4-15.3zM332.2 336.2c0.4 0.7-13.6 7-32 6.1-18.5-0.7-31.9-8.1-31.4-8.8 0.4-1 13.9 4.7 31.5 5.4 17.7 0.9 31.6-3.7 31.9-2.7z" fill="#FFC74A" p-id="4654"></path></svg>